<?xml version="1.0"?>
<svg xmlns="http://www.w3.org/2000/svg" xmlns:xlink="http://www.w3.org/1999/xlink" width="500" zoomAndPan="magnify" viewBox="0 0 375 374.999991" height="500" preserveAspectRatio="xMidYMid meet" version="1.2" style="background-color:transparent;">
  <defs>
    <clipPath id="b372282368">
      <path d="M 170.941406 217.734375 L 212.78125 217.734375 L 212.78125 259.574219 L 170.941406 259.574219 Z M 170.941406 217.734375 "/>
    </clipPath>
    <clipPath id="650a35a07a">
      <path d="M 191.863281 217.734375 C 180.308594 217.734375 170.941406 227.101562 170.941406 238.65625 C 170.941406 250.210938 180.308594 259.574219 191.863281 259.574219 C 203.414062 259.574219 212.78125 250.210938 212.78125 238.65625 C 212.78125 227.101562 203.414062 217.734375 191.863281 217.734375 Z M 191.863281 217.734375 "/>
    </clipPath>
    <clipPath id="071501aa02">
      <path d="M 182.40625 229.953125 L 201.316406 229.953125 L 201.316406 248.859375 L 182.40625 248.859375 Z M 182.40625 229.953125 "/>
    </clipPath>
    <clipPath id="67fbb26085">
      <path d="M 191.863281 229.953125 C 186.640625 229.953125 182.40625 234.183594 182.40625 239.40625 C 182.40625 244.625 186.640625 248.859375 191.863281 248.859375 C 197.082031 248.859375 201.316406 244.625 201.316406 239.40625 C 201.316406 234.183594 197.082031 229.953125 191.863281 229.953125 Z M 191.863281 229.953125 "/>
    </clipPath>
    <clipPath id="2af2d4750c">
      <path d="M 128.289062 102.207031 L 178.039062 102.207031 L 178.039062 151.957031 L 128.289062 151.957031 Z M 128.289062 102.207031 "/>
    </clipPath>
    <clipPath id="d362fb4120">
      <path d="M 153.164062 102.207031 C 139.425781 102.207031 128.289062 113.34375 128.289062 127.082031 C 128.289062 140.820312 139.425781 151.957031 153.164062 151.957031 C 166.902344 151.957031 178.039062 140.820312 178.039062 127.082031 C 178.039062 113.34375 166.902344 102.207031 153.164062 102.207031 Z M 153.164062 102.207031 "/>
    </clipPath>
  </defs>
  <g id="433bec767a">
    <rect x="0" width="375" y="0" height="374.999991" style="fill:none;fill-opacity:1;stroke:none;" fill="none"/>
    <rect x="0" width="375" y="0" height="374.999991" style="fill:none;fill-opacity:1;stroke:none;" fill="none"/>
    <g style="fill:none;fill-opacity:1;">
      <g transform="translate(121.787839, 245.443349)">
        <path style="stroke:none" d="M 65.375 -128.71875 L 65.375 -36.359375 C 65.375 -23.765625 61.914062 -14.164062 55 -7.5625 C 48.082031 -0.957031 38.175781 2.34375 25.28125 2.34375 C 21.84375 2.34375 18.457031 1.925781 15.125 1.09375 C 11.800781 0.257812 8.992188 -0.753906 6.703125 -1.953125 C 4.421875 -3.148438 2.367188 -4.367188 0.546875 -5.609375 C -1.273438 -6.859375 -2.601562 -7.898438 -3.4375 -8.734375 L -4.84375 -9.984375 L 4.53125 -34.484375 C 10.664062 -28.660156 16.226562 -25.75 21.21875 -25.75 C 25.6875 -25.75 29.273438 -27.226562 31.984375 -30.1875 C 34.691406 -33.15625 36.046875 -37.707031 36.046875 -43.84375 L 36.046875 -128.71875 Z M 65.375 -128.71875 "/>
      </g>
    </g>
    <g style="fill:none;fill-opacity:1;">
      <g transform="translate(166.096289, 245.443349)">
        <path style="stroke:none" d="M 9.359375 -128.71875 L 56.328125 -128.71875 C 69.429688 -128.71875 80.035156 -125.335938 88.140625 -118.578125 C 96.253906 -111.816406 100.3125 -101.984375 100.3125 -89.078125 C 100.3125 -76.179688 96.203125 -66.066406 87.984375 -58.734375 C 79.773438 -51.398438 69.222656 -47.734375 56.328125 -47.734375 L 38.6875 -47.734375 L 38.6875 0 L 9.359375 0 Z M 38.6875 -71.140625 L 46.953125 -71.140625 C 53.515625 -71.140625 58.898438 -72.460938 63.109375 -75.109375 C 67.316406 -77.765625 69.421875 -82.113281 69.421875 -88.15625 C 69.421875 -94.289062 67.316406 -98.679688 63.109375 -101.328125 C 58.898438 -103.984375 53.515625 -105.3125 46.953125 -105.3125 L 38.6875 -105.3125 Z M 38.6875 -71.140625 "/>
      </g>
    </g>
    <g clip-rule="nonzero" clip-path="url(#b372282368)">
      <g clip-rule="nonzero" clip-path="url(#650a35a07a)">
        <path style=" stroke:none;fill-rule:nonzero;fill:#000000;fill-opacity:1;" d="M 170.941406 217.734375 L 212.78125 217.734375 L 212.78125 259.574219 L 170.941406 259.574219 Z M 170.941406 217.734375 "/>
      </g>
    </g>
    <g clip-rule="nonzero" clip-path="url(#071501aa02)">
      <g clip-rule="nonzero" clip-path="url(#67fbb26085)">
        <path style=" stroke:none;fill-rule:nonzero;fill:none;fill-opacity:1;" d="M 182.40625 229.953125 L 201.316406 229.953125 L 201.316406 248.859375 L 182.40625 248.859375 Z M 182.40625 229.953125 "/>
      </g>
    </g>
    <g clip-rule="nonzero" clip-path="url(#2af2d4750c)">
      <g clip-rule="nonzero" clip-path="url(#d362fb4120)">
        <path style=" stroke:none;fill-rule:nonzero;fill:#000000;fill-opacity:1;" d="M 128.289062 102.207031 L 178.039062 102.207031 L 178.039062 151.957031 L 128.289062 151.957031 Z M 128.289062 102.207031 "/>
      </g>
    </g>
    <g style="fill:none;fill-opacity:1;">
      <g transform="translate(113.275552, 275.775275)">
        <path style="stroke:none" d="M 0.671875 0 L 0.671875 -2.6875 L 2.515625 -2.6875 C 3.285156 -2.6875 3.820312 -2.867188 4.125 -3.234375 C 4.4375 -3.597656 4.59375 -4.128906 4.59375 -4.828125 L 4.59375 -12.59375 L 7.46875 -12.59375 L 7.46875 -4.609375 C 7.46875 -3.160156 7.066406 -2.03125 6.265625 -1.21875 C 5.460938 -0.40625 4.273438 0 2.703125 0 Z M 0.671875 0 "/>
      </g>
    </g>
    <g style="fill:none;fill-opacity:1;">
      <g transform="translate(122.221524, 275.775275)">
        <path style="stroke:none" d="M 1.515625 0 L 1.515625 -12.59375 L 9.796875 -12.59375 L 9.796875 -10.1875 L 4.359375 -10.1875 L 4.359375 -7.578125 L 9.3125 -7.578125 L 9.3125 -5.1875 L 4.359375 -5.1875 L 4.359375 -2.4375 L 9.984375 -2.4375 L 9.984375 0 Z M 1.515625 0 "/>
      </g>
    </g>
    <g style="fill:none;fill-opacity:1;">
      <g transform="translate(133.129494, 275.775275)">
        <path style="stroke:none" d="M 1.515625 0 L 1.515625 -12.59375 L 6.890625 -12.59375 C 7.847656 -12.59375 8.679688 -12.421875 9.390625 -12.078125 C 10.097656 -11.734375 10.644531 -11.234375 11.03125 -10.578125 C 11.414062 -9.929688 11.609375 -9.160156 11.609375 -8.265625 C 11.609375 -7.335938 11.394531 -6.539062 10.96875 -5.875 C 10.550781 -5.207031 9.96875 -4.707031 9.21875 -4.375 L 11.828125 0 L 8.515625 0 L 6.265625 -3.921875 L 4.375 -3.921875 L 4.375 0 Z M 4.34375 -6.34375 L 6.515625 -6.34375 C 7.222656 -6.34375 7.765625 -6.503906 8.140625 -6.828125 C 8.523438 -7.160156 8.71875 -7.632812 8.71875 -8.25 C 8.71875 -8.851562 8.523438 -9.320312 8.140625 -9.65625 C 7.765625 -9.988281 7.222656 -10.15625 6.515625 -10.15625 L 4.34375 -10.15625 Z M 4.34375 -6.34375 "/>
      </g>
    </g>
    <g style="fill:none;fill-opacity:1;">
      <g transform="translate(145.801455, 275.775275)">
        <path style="stroke:none" d="M 1.515625 0 L 1.515625 -12.59375 L 9.796875 -12.59375 L 9.796875 -10.1875 L 4.359375 -10.1875 L 4.359375 -7.578125 L 9.3125 -7.578125 L 9.3125 -5.1875 L 4.359375 -5.1875 L 4.359375 -2.4375 L 9.984375 -2.4375 L 9.984375 0 Z M 1.515625 0 "/>
      </g>
    </g>
    <g style="fill:none;fill-opacity:1;">
      <g transform="translate(156.709425, 275.775275)">
        <path style="stroke:none" d="M 1.515625 0 L 1.515625 -12.59375 L 3.9375 -12.59375 L 8.421875 -6.0625 L 12.890625 -12.59375 L 15.296875 -12.59375 L 15.296875 0 L 12.453125 0 L 12.453125 -7.578125 L 9.390625 -3.109375 L 7.421875 -3.109375 L 4.359375 -7.59375 L 4.359375 0 Z M 1.515625 0 "/>
      </g>
    </g>
    <g style="fill:none;fill-opacity:1;">
      <g transform="translate(173.521378, 275.775275)">
        <path style="stroke:none" d="M 1.515625 0 L 1.515625 -12.59375 L 4.375 -12.59375 L 4.375 0 Z M 1.515625 0 "/>
      </g>
    </g>
    <g style="fill:none;fill-opacity:1;">
      <g transform="translate(179.40736, 275.775275)">
        <path style="stroke:none" d="M 0.15625 0 L 5.171875 -12.59375 L 7.96875 -12.59375 L 12.984375 0 L 9.921875 0 L 9.078125 -2.171875 L 4.0625 -2.171875 L 3.21875 0 Z M 4.8125 -4.421875 L 8.359375 -4.421875 L 6.5625 -9.03125 Z M 4.8125 -4.421875 "/>
      </g>
    </g>
    <g style="fill:none;fill-opacity:1;">
      <g transform="translate(192.547317, 275.775275)">
        <path style="stroke:none" d=""/>
      </g>
    </g>
    <g style="fill:none;fill-opacity:1;">
      <g transform="translate(196.777305, 275.775275)">
        <path style="stroke:none" d="M 1.515625 0 L 1.515625 -12.59375 L 6.4375 -12.59375 C 7.457031 -12.59375 8.335938 -12.40625 9.078125 -12.03125 C 9.828125 -11.664062 10.410156 -11.140625 10.828125 -10.453125 C 11.242188 -9.773438 11.453125 -8.972656 11.453125 -8.046875 C 11.453125 -7.128906 11.242188 -6.328125 10.828125 -5.640625 C 10.410156 -4.960938 9.828125 -4.4375 9.078125 -4.0625 C 8.335938 -3.695312 7.457031 -3.515625 6.4375 -3.515625 L 4.375 -3.515625 L 4.375 0 Z M 4.359375 -5.96875 L 6.203125 -5.96875 C 6.953125 -5.96875 7.523438 -6.144531 7.921875 -6.5 C 8.328125 -6.851562 8.53125 -7.363281 8.53125 -8.03125 C 8.53125 -8.6875 8.328125 -9.191406 7.921875 -9.546875 C 7.523438 -9.910156 6.953125 -10.09375 6.203125 -10.09375 L 4.359375 -10.09375 Z M 4.359375 -5.96875 "/>
      </g>
    </g>
    <g style="fill:none;fill-opacity:1;">
      <g transform="translate(208.747263, 275.775275)">
        <path style="stroke:none" d="M 0.15625 0 L 5.171875 -12.59375 L 7.96875 -12.59375 L 12.984375 0 L 9.921875 0 L 9.078125 -2.171875 L 4.0625 -2.171875 L 3.21875 0 Z M 4.8125 -4.421875 L 8.359375 -4.421875 L 6.5625 -9.03125 Z M 4.8125 -4.421875 "/>
      </g>
    </g>
    <g style="fill:none;fill-opacity:1;">
      <g transform="translate(221.887219, 275.775275)">
        <path style="stroke:none" d="M 6.65625 0.25 C 5.5625 0.25 4.617188 0.03125 3.828125 -0.40625 C 3.046875 -0.84375 2.441406 -1.460938 2.015625 -2.265625 C 1.597656 -3.078125 1.390625 -4.050781 1.390625 -5.1875 L 1.390625 -12.59375 L 4.25 -12.59375 L 4.25 -5.375 C 4.25 -3.4375 5.050781 -2.46875 6.65625 -2.46875 C 8.269531 -2.46875 9.078125 -3.4375 9.078125 -5.375 L 9.078125 -12.59375 L 11.9375 -12.59375 L 11.9375 -5.1875 C 11.9375 -4.050781 11.722656 -3.078125 11.296875 -2.265625 C 10.867188 -1.460938 10.257812 -0.84375 9.46875 -0.40625 C 8.6875 0.03125 7.75 0.25 6.65625 0.25 Z M 6.65625 0.25 "/>
      </g>
    </g>
    <g style="fill:none;fill-opacity:1;">
      <g transform="translate(235.20718, 275.775275)">
        <path style="stroke:none" d="M 1.515625 0 L 1.515625 -12.59375 L 4.375 -12.59375 L 4.375 -2.6875 L 9.875 -2.6875 L 9.875 0 Z M 1.515625 0 "/>
      </g>
    </g>
    <g style="fill:none;fill-opacity:1;">
      <g transform="translate(245.575149, 275.775275)">
        <path style="stroke:none" d="M 6.65625 0.25 C 5.5625 0.25 4.617188 0.03125 3.828125 -0.40625 C 3.046875 -0.84375 2.441406 -1.460938 2.015625 -2.265625 C 1.597656 -3.078125 1.390625 -4.050781 1.390625 -5.1875 L 1.390625 -12.59375 L 4.25 -12.59375 L 4.25 -5.375 C 4.25 -3.4375 5.050781 -2.46875 6.65625 -2.46875 C 8.269531 -2.46875 9.078125 -3.4375 9.078125 -5.375 L 9.078125 -12.59375 L 11.9375 -12.59375 L 11.9375 -5.1875 C 11.9375 -4.050781 11.722656 -3.078125 11.296875 -2.265625 C 10.867188 -1.460938 10.257812 -0.84375 9.46875 -0.40625 C 8.6875 0.03125 7.75 0.25 6.65625 0.25 Z M 6.65625 0.25 "/>
      </g>
    </g>
    <g style="fill:none;fill-opacity:1;">
      <g transform="translate(258.89511, 275.775275)">
        <path style="stroke:none" d="M 5.90625 0.25 C 4.84375 0.25 3.929688 0.078125 3.171875 -0.265625 C 2.410156 -0.617188 1.820312 -1.113281 1.40625 -1.75 C 1 -2.394531 0.796875 -3.148438 0.796875 -4.015625 L 3.59375 -4.015625 C 3.59375 -3.410156 3.800781 -2.941406 4.21875 -2.609375 C 4.632812 -2.273438 5.191406 -2.109375 5.890625 -2.109375 C 6.484375 -2.109375 6.953125 -2.222656 7.296875 -2.453125 C 7.648438 -2.691406 7.828125 -3.019531 7.828125 -3.4375 C 7.828125 -3.882812 7.613281 -4.242188 7.1875 -4.515625 C 6.769531 -4.796875 6.117188 -5.03125 5.234375 -5.21875 C 3.765625 -5.53125 2.675781 -6.003906 1.96875 -6.640625 C 1.257812 -7.273438 0.90625 -8.101562 0.90625 -9.125 C 0.90625 -10.28125 1.320312 -11.191406 2.15625 -11.859375 C 3 -12.523438 4.144531 -12.859375 5.59375 -12.859375 C 6.59375 -12.859375 7.457031 -12.6875 8.1875 -12.34375 C 8.914062 -12 9.484375 -11.515625 9.890625 -10.890625 C 10.296875 -10.273438 10.5 -9.539062 10.5 -8.6875 L 7.734375 -8.6875 C 7.734375 -9.257812 7.546875 -9.707031 7.171875 -10.03125 C 6.804688 -10.351562 6.296875 -10.515625 5.640625 -10.515625 C 5.035156 -10.515625 4.554688 -10.394531 4.203125 -10.15625 C 3.859375 -9.925781 3.6875 -9.601562 3.6875 -9.1875 C 3.6875 -8.800781 3.878906 -8.472656 4.265625 -8.203125 C 4.648438 -7.941406 5.320312 -7.695312 6.28125 -7.46875 C 7.851562 -7.09375 8.988281 -6.59375 9.6875 -5.96875 C 10.382812 -5.351562 10.734375 -4.546875 10.734375 -3.546875 C 10.734375 -2.359375 10.300781 -1.425781 9.4375 -0.75 C 8.582031 -0.0820312 7.40625 0.25 5.90625 0.25 Z M 5.90625 0.25 "/>
      </g>
    </g>
  </g>
</svg>
